<svg xmlns="http://www.w3.org/2000/svg" height="20px" viewBox="0 -960 960 960" width="20px" fill="#1f1f1f"><path d="M743.79-660q15.21 0 25.71-10.29t10.5-25.5q0-15.21-10.29-25.71t-25.5-10.5q-15.21 0-25.71 10.29t-10.5 25.5q0 15.21 10.29 25.71t25.5 10.5Zm-144 0q15.21 0 25.71-10.29t10.5-25.5q0-15.21-10.29-25.71t-25.5-10.5q-15.21 0-25.71 10.29t-10.5 25.5q0 15.21 10.29 25.71t25.5 10.5ZM576-504h192q0-34-29.28-53T672-576q-37.44 0-66.72 19T576-504ZM118-166q-70-70-70-170v-288h480v288q0 100-70 170T288-96q-100 0-170-70Zm289-51q49-49 49-119v-216H120v216q0 70 49 119t119 49q70 0 119-49Zm265-119q-24.65 0-48.82-5Q599-346 576-357v-82q20 17 44.85 24 24.84 7 51.15 7 70 0 119-49t49-119v-216H504v120h-72v-192h480v288q0 100-70 170t-170 70Zm-456.21-84q15.21 0 25.71-10.29t10.5-25.5q0-15.21-10.29-25.71t-25.5-10.5q-15.21 0-25.71 10.29t-10.5 25.5q0 15.21 10.29 25.71t25.5 10.5Zm169.71-10.29q10.5-10.29 10.5-25.5t-10.29-25.71q-10.29-10.5-25.5-10.5t-25.71 10.29q-10.5 10.29-10.5 25.5t10.29 25.71q10.29 10.5 25.5 10.5t25.71-10.29ZM354.5-283q29.5-19 29.5-53H192q0 34 29.5 53t66.5 19q37 0 66.5-19ZM288-336Zm384-288Z"/></svg>